{
    "streams": [
        {
            "index": 0,
            "codec_type": "data",
            "codec_tag_string": "mett",
            "codec_tag": "0x7474656d",
            "id": "0x1",
            "r_frame_rate": "0/0",
            "avg_frame_rate": "0/0",
            "time_base": "1/90000",
            "start_pts": 0,
            "start_time": "0.000000",
            "duration_ts": 2180941,
            "duration": "24.232678",
            "bit_rate": "48797",
            "nb_frames": "727",
            "disposition": {
                "default": 1,
                "dub": 0,
                "original": 0,
                "comment": 0,
                "lyrics": 0,
                "karaoke": 0,
                "forced": 0,
                "hearing_impaired": 0,
                "visual_impaired": 0,
                "clean_effects": 0,
                "attached_pic": 0,
                "timed_thumbnails": 0,
                "non_diegetic": 0,
                "captions": 0,
                "descriptions": 0,
                "metadata": 0,
                "dependent": 0,
                "still_image": 0,
                "multilayer": 0
            },
            "tags": {
                "creation_time": "2025-08-05T23:47:42.000000Z",
                "language": "eng",
                "handler_name": "MetaHandle"
            }
        },
        {
            "index": 1,
            "codec_name": "aac",
            "codec_long_name": "AAC (Advanced Audio Coding)",
            "profile": "LC",
            "codec_type": "audio",
            "codec_tag_string": "mp4a",
            "codec_tag": "0x6134706d",
            "sample_fmt": "fltp",
            "sample_rate": "48000",
            "channels": 2,
            "channel_layout": "stereo",
            "bits_per_sample": 0,
            "initial_padding": 0,
            "id": "0x2",
            "r_frame_rate": "0/0",
            "avg_frame_rate": "0/0",
            "time_base": "1/48000",
            "start_pts": 946,
            "start_time": "0.019708",
            "duration_ts": 1161338,
            "duration": "24.194542",
            "bit_rate": "192044",
            "nb_frames": "1134",
            "extradata_size": 2,
            "disposition": {
                "default": 1,
                "dub": 0,
                "original": 0,
                "comment": 0,
                "lyrics": 0,
                "karaoke": 0,
                "forced": 0,
                "hearing_impaired": 0,
                "visual_impaired": 0,
                "clean_effects": 0,
                "attached_pic": 0,
                "timed_thumbnails": 0,
                "non_diegetic": 0,
                "captions": 0,
                "descriptions": 0,
                "metadata": 0,
                "dependent": 0,
                "still_image": 0,
                "multilayer": 0
            },
            "tags": {
                "creation_time": "2025-08-05T23:47:42.000000Z",
                "language": "eng",
                "handler_name": "SoundHandle",
                "vendor_id": "[0][0][0][0]"
            }
        },
        {
            "index": 2,
            "codec_name": "h264",
            "codec_long_name": "H.264 / AVC / MPEG-4 AVC / MPEG-4 part 10",
            "profile": "High",
            "codec_type": "video",
            "codec_tag_string": "avc1",
            "codec_tag": "0x31637661",
            "width": 1920,
            "height": 1080,
            "coded_width": 1920,
            "coded_height": 1080,
            "has_b_frames": 0,
            "sample_aspect_ratio": "1:1",
            "display_aspect_ratio": "16:9",
            "pix_fmt": "yuvj420p",
            "level": 41,
            "color_range": "pc",
            "color_space": "bt709",
            "color_transfer": "bt709",
            "color_primaries": "bt709",
            "chroma_location": "left",
            "field_order": "progressive",
            "refs": 1,
            "is_avc": "true",
            "nal_length_size": "4",
            "id": "0x3",
            "r_frame_rate": "30/1",
            "avg_frame_rate": "65430000/2180941",
            "time_base": "1/90000",
            "start_pts": 0,
            "start_time": "0.000000",
            "duration_ts": 2180941,
            "duration": "24.232678",
            "bit_rate": "21999611",
            "bits_per_raw_sample": "8",
            "nb_frames": "727",
            "extradata_size": 34,
            "disposition": {
                "default": 1,
                "dub": 0,
                "original": 0,
                "comment": 0,
                "lyrics": 0,
                "karaoke": 0,
                "forced": 0,
                "hearing_impaired": 0,
                "visual_impaired": 0,
                "clean_effects": 0,
                "attached_pic": 0,
                "timed_thumbnails": 0,
                "non_diegetic": 0,
                "captions": 0,
                "descriptions": 0,
                "metadata": 0,
                "dependent": 0,
                "still_image": 0,
                "multilayer": 0
            },
            "tags": {
                "creation_time": "2025-08-05T23:47:42.000000Z",
                "language": "eng",
                "handler_name": "VideoHandle",
                "vendor_id": "[0][0][0][0]"
            }
        }
    ],
    "format": {
        "filename": "/Users/douglasgarrett/Documents/pictures/2025_pictures/2025-08_FL_visitors/2025-08_FL_visitors_videos/PXL_20250805_234716743.mp4",
        "nb_streams": 3,
        "nb_programs": 0,
        "nb_stream_groups": 0,
        "format_name": "mov,mp4,m4a,3gp,3g2,mj2",
        "format_long_name": "QuickTime / MOV",
        "start_time": "0.000000",
        "duration": "24.232678",
        "size": "67404700",
        "bit_rate": "22252497",
        "probe_score": 100,
        "tags": {
            "major_brand": "isom",
            "minor_version": "131072",
            "compatible_brands": "isomiso2mp41",
            "creation_time": "2025-08-05T23:47:42.000000Z",
            "location": "+37.8057-122.4045/",
            "location-eng": "+37.8057-122.4045/",
            "com.android.model": "Pixel 8 Pro",
            "com.android.capture.fps": "30.000000",
            "com.android.manufacturer": "Google"
        }
    }
}